<svg xmlns="http://www.w3.org/2000/svg" viewBox="0 0 64 64" role="img" aria-labelledby="title">
  <title id="title">slapz.lol slap mark</title>
  <defs>
    <linearGradient id="slapzS" x1="9" x2="55" y1="8" y2="56" gradientUnits="userSpaceOnUse">
      <stop stop-color="#59f8ff" />
      <stop offset="0.46" stop-color="#0bbde8" />
      <stop offset="0.54" stop-color="#fff7e8" />
      <stop offset="0.68" stop-color="#ff9b32" />
      <stop offset="1" stop-color="#ff5229" />
    </linearGradient>
    <linearGradient id="cyanSwoosh" x1="17" x2="54" y1="35" y2="12" gradientUnits="userSpaceOnUse">
      <stop stop-color="#f7ffff" />
      <stop offset="0.2" stop-color="#4ef4ff" />
      <stop offset="1" stop-color="#0795e0" />
    </linearGradient>
    <linearGradient id="orangeSwoosh" x1="47" x2="10" y1="29" y2="52" gradientUnits="userSpaceOnUse">
      <stop stop-color="#fff1cf" />
      <stop offset="0.18" stop-color="#ff9d32" />
      <stop offset="1" stop-color="#ff4e22" />
    </linearGradient>
    <filter id="softGlow" x="-50%" y="-50%" width="200%" height="200%">
      <feGaussianBlur stdDeviation="2.6" result="blur" />
      <feMerge>
        <feMergeNode in="blur" />
        <feMergeNode in="SourceGraphic" />
      </feMerge>
    </filter>
  </defs>
  <rect width="64" height="64" rx="16" fill="#090a10" />
  <path d="M50.8 13.7C39.7 7.6 19.8 8.9 14.2 21.5c-7.1 16 32.4 10.7 34.2 22.4C50.5 57 27.8 58.5 12.2 49.3" fill="none" stroke="url(#slapzS)" stroke-width="12.6" stroke-linecap="round" stroke-linejoin="round" opacity="0.25" filter="url(#softGlow)" />
  <path d="M49.8 13.8C38.6 8.1 20.1 9.6 14.7 21.6c-4.6 10.4 8.3 13.1 21 10.5" fill="none" stroke="url(#cyanSwoosh)" stroke-width="9.6" stroke-linecap="round" stroke-linejoin="round" filter="url(#softGlow)" />
  <path d="M31.2 32.9c12.6-2.1 22.1 1.1 18.6 12.3C46 57.6 26.4 57.2 12.8 49.4" fill="none" stroke="url(#orangeSwoosh)" stroke-width="9.6" stroke-linecap="round" stroke-linejoin="round" filter="url(#softGlow)" />
  <path d="M24.1 17.6C34.7 11.5 46.1 11.8 53.8 16.1" fill="none" stroke="#ffffff" stroke-width="1.85" stroke-linecap="round" opacity="0.72" />
  <path d="M46.9 14.2h5.7M44.7 17.1h7.2" fill="none" stroke="#f7ffff" stroke-width="1.8" stroke-linecap="round" opacity="0.62" />
  <path d="M8.1 46.4h6.4M10.4 49.4h7.2" fill="none" stroke="#fff1cf" stroke-width="1.8" stroke-linecap="round" opacity="0.58" />
</svg>
