<svg xmlns="http://www.w3.org/2000/svg" viewBox="0 0 64 64" role="img" aria-labelledby="title">
  <title id="title">slapz.lol slap mark</title>
  <defs>
    <linearGradient id="cyanSwoosh" x1="6" x2="59" y1="43" y2="7" gradientUnits="userSpaceOnUse">
      <stop stop-color="#f7ffff" />
      <stop offset="0.2" stop-color="#4ef4ff" />
      <stop offset="1" stop-color="#0795e0" />
    </linearGradient>
    <linearGradient id="orangeSwoosh" x1="58" x2="5" y1="21" y2="59" gradientUnits="userSpaceOnUse">
      <stop stop-color="#fff1cf" />
      <stop offset="0.18" stop-color="#ff9d32" />
      <stop offset="1" stop-color="#ff4e22" />
    </linearGradient>
    <filter id="softGlow" x="-50%" y="-50%" width="200%" height="200%">
      <feGaussianBlur stdDeviation="2.6" result="blur" />
      <feMerge>
        <feMergeNode in="blur" />
        <feMergeNode in="SourceGraphic" />
      </feMerge>
    </filter>
  </defs>
  <rect width="64" height="64" rx="16" fill="#090a10" />
  <path d="M6 39.4C15.5 21.5 33.6 12 61 6 40.3 16.4 29 25.5 26.8 34.2c-1.2 4.8 3.9 7.2 14.9 5.3C26.4 48.3 9.7 47.1 6 39.4Z" fill="url(#cyanSwoosh)" filter="url(#softGlow)" />
  <path d="M58 24.6C48.5 42.5 30.4 52 3 58c20.7-10.4 32-19.5 34.2-28.2 1.2-4.8-3.9-7.2-14.9-5.3 15.3-8.8 32-7.6 35.7.1Z" fill="url(#orangeSwoosh)" filter="url(#softGlow)" />
  <path d="M13.8 35.8C20 25.4 34.9 16.6 52.8 11.4" fill="none" stroke="#ffffff" stroke-width="1.8" stroke-linecap="round" opacity="0.62" />
  <path d="M45.3 11.1h13.7M39.1 15.5h17.4M34 20h11.6" fill="none" stroke="#58f7ff" stroke-width="2.1" stroke-linecap="round" opacity="0.88" />
  <path d="M4.9 47h13.8M7.9 51.3h18.2M3.7 55.6h13.7" fill="none" stroke="#ff7a27" stroke-width="2.1" stroke-linecap="round" opacity="0.88" />
</svg>
