<svg xmlns="http://www.w3.org/2000/svg" viewBox="0 0 64 64" role="img" aria-labelledby="title">
  <title id="title">slapz.lol slap mark</title>
  <defs>
    <linearGradient id="slapzS" x1="9" x2="55" y1="8" y2="56" gradientUnits="userSpaceOnUse">
      <stop stop-color="#59f8ff" />
      <stop offset="0.46" stop-color="#0bbde8" />
      <stop offset="0.54" stop-color="#fff7e8" />
      <stop offset="0.68" stop-color="#ff9b32" />
      <stop offset="1" stop-color="#ff5229" />
    </linearGradient>
    <linearGradient id="cyanSwoosh" x1="17" x2="54" y1="35" y2="12" gradientUnits="userSpaceOnUse">
      <stop stop-color="#f7ffff" />
      <stop offset="0.2" stop-color="#4ef4ff" />
      <stop offset="1" stop-color="#0795e0" />
    </linearGradient>
    <linearGradient id="orangeSwoosh" x1="47" x2="10" y1="29" y2="52" gradientUnits="userSpaceOnUse">
      <stop stop-color="#fff1cf" />
      <stop offset="0.18" stop-color="#ff9d32" />
      <stop offset="1" stop-color="#ff4e22" />
    </linearGradient>
    <filter id="softGlow" x="-50%" y="-50%" width="200%" height="200%">
      <feGaussianBlur stdDeviation="2.6" result="blur" />
      <feMerge>
        <feMergeNode in="blur" />
        <feMergeNode in="SourceGraphic" />
      </feMerge>
    </filter>
  </defs>
  <rect width="64" height="64" rx="16" fill="#090a10" />
  <path d="M53.5 12.7C42.2 6.2 18.4 8 14.5 22.1c-4.8 17.2 36 10.6 34.8 27.1-.9 12.6-26 13.9-39.6 5.4" fill="none" stroke="url(#slapzS)" stroke-width="10.5" stroke-linecap="round" stroke-linejoin="round" filter="url(#softGlow)" />
  <path d="M17.5 34.4C25.8 24.2 38.3 17 54.4 12.2 41.7 20.5 33 27.7 28.6 34.2c-2.8 4.1-1.1 6.3 5.1 6.7-7.1 2.4-14 .6-16.2-6.5Z" fill="url(#cyanSwoosh)" opacity="0.96" />
  <path d="M46.5 29.6C38.2 39.8 25.7 47 9.6 51.8c12.7-8.3 21.4-15.5 25.8-22 2.8-4.1 1.1-6.3-5.1-6.7 7.1-2.4 14-.6 16.2 6.5Z" fill="url(#orangeSwoosh)" opacity="0.96" />
  <path d="M20.2 31.1C27.1 23.2 37.6 17.5 50.7 13.5" fill="none" stroke="#ffffff" stroke-width="1.8" stroke-linecap="round" opacity="0.6" />
  <path d="M50 12.8h7M47.2 16.4h8.2M44.8 20h5.8" fill="none" stroke="#58f7ff" stroke-width="2.1" stroke-linecap="round" opacity="0.66" />
  <path d="M6.7 45.6h7M8.5 49.1h8.2M5.8 52.6h5.8" fill="none" stroke="#ff7a27" stroke-width="2.1" stroke-linecap="round" opacity="0.66" />
</svg>
